<svg height="512" viewBox="0 0 64 64" width="512" xmlns="http://www.w3.org/2000/svg"><g id="lock-shield-protection-protect-security"><path d="m44 15h4v6h-4z" fill="#bddbff"/><path d="m48 11h-4a4 4 0 0 0 -4-4h-16a4 4 0 0 0 -4 4v10h-4v-10a8 8 0 0 1 8-8h16a8 8 0 0 1 8 8z" fill="#bddbff"/><path d="m43 31v8.69a12 12 0 0 1 -3.93 8.88l-7.07 6.43-7.07-6.43a12 12 0 0 1 -3.93-8.88v-8.69l11-4z" fill="#bddbff"/><g fill="#57a4ff"><path d="m55 20h-6v-9a9.014 9.014 0 0 0 -9-9h-16a9.014 9.014 0 0 0 -9 9v9h-6a3.009 3.009 0 0 0 -3 3v36a3.009 3.009 0 0 0 3 3h46a3.009 3.009 0 0 0 3-3v-36a3.009 3.009 0 0 0 -3-3zm-10-6v-2h2v2zm2 2v4h-2v-4zm-30-5a7.008 7.008 0 0 1 7-7h16a7 7 0 0 1 6.92 6h-2.02a5.017 5.017 0 0 0 -4.9-4h-16a5 5 0 0 0 -5 5v9h-2zm26 0v9h-22v-9a3.009 3.009 0 0 1 3-3h16a3.009 3.009 0 0 1 3 3zm13 48a1 1 0 0 1 -1 1h-46a1 1 0 0 1 -1-1v-36a1 1 0 0 1 1-1h46a1 1 0 0 1 1 1z"/><path d="m43.34 30.06-11-4a.993.993 0 0 0 -.68 0l-11 4a.992.992 0 0 0 -.66.94v8.69a13.032 13.032 0 0 0 4.25 9.62l7.08 6.43a.993.993 0 0 0 1.34 0l7.08-6.43a13.032 13.032 0 0 0 4.25-9.62v-8.69a.992.992 0 0 0 -.66-.94zm-1.34 9.63a11.02 11.02 0 0 1 -3.6 8.14l-6.4 5.82-6.4-5.82a11.02 11.02 0 0 1 -3.6-8.14v-7.99l10-3.64 10 3.64z"/><path d="m27.707 39.293-1.414 1.414 4 4a1 1 0 0 0 1.414 0l7-7-1.414-1.414-6.293 6.293z"/><path d="m10 24h2v2h-2z"/><path d="m14 24h2v2h-2z"/><path d="m18 24h2v2h-2z"/><path d="m44 24h2v2h-2z"/><path d="m48 24h2v2h-2z"/><path d="m52 24h2v2h-2z"/><path d="m10 56h2v2h-2z"/><path d="m14 56h2v2h-2z"/><path d="m18 56h2v2h-2z"/><path d="m44 56h2v2h-2z"/><path d="m48 56h2v2h-2z"/><path d="m52 56h2v2h-2z"/></g></g></svg>